# xmcd
#
# Track frame offsets:
#	150
#	45700
#	76375
#	112627
#	134897
#	174937
#	203957
#	236795
#	262357
#
# Disc length: 3964 seconds
#
# Revision: 1
# Processed by: cddbd v1.4b42PL1 Copyright (c) Steve Scherf et al.
# Submitted via: audiograbber 1.80
#
DISCID=800f7a09
DTITLE=Nagaraja Dasa - Echos of Vraja
DYEAR=1900
DGENRE=
TTITLE0=Sri-guru-carana-padma
TTITLE1=Hare Krsna Mantra
TTITLE2=Sri Damodarastaka
TTITLE3=Hare Krsna Mantra
TTITLE4=Jaya Madhava Madana Murari
TTITLE5=Hare Krsna Mantra
TTITLE6=Krsna Jinaka
TTITLE7=Hare Krsna Mantra
TTITLE8=Hari Haraye
EXTD=
EXTT0=
EXTT1=
EXTT2=
EXTT3=
EXTT4=
EXTT5=
EXTT6=
EXTT7=
EXTT8=
PLAYORDER=
